<svg width="20" height="20" viewBox="0 0 20 20" fill="none" xmlns="http://www.w3.org/2000/svg">
  <path d="M5 8.5C5 6.01 7.01 4 9.5 4H10.5C12.99 4 15 6.01 15 8.5V10.5" stroke="#64748B" stroke-width="1.55" stroke-linecap="round"/>
  <path d="M5 11V12.5C5 14.71 5 15.5 5 16" stroke="#64748B" stroke-width="1.55" stroke-linecap="round"/>
  <path d="M7.5 9.5V12C7.5 14 7.5 15.5 7.5 16.5" stroke="#64748B" stroke-width="1.55" stroke-linecap="round"/>
  <path d="M10 9.5V11.5C10 13.5 10 15.5 10 16.5" stroke="#64748B" stroke-width="1.55" stroke-linecap="round"/>
  <path d="M12.5 10V11.5C12.5 13.5 12.5 15 12.5 16" stroke="#64748B" stroke-width="1.55" stroke-linecap="round"/>
  <path d="M15 11.5V13C15 14.5 15 15.5 15 16.5" stroke="#64748B" stroke-width="1.55" stroke-linecap="round"/>
</svg>
