<svg width="20" height="20" viewBox="0 0 20 20" fill="none" xmlns="http://www.w3.org/2000/svg">
  <path d="M2.5 6.5C2.5 5.67 3.17 5 4 5H7.5L9 6.5H16C16.83 6.5 17.5 7.17 17.5 8V9.25H6.34C5.7 9.25 5.13 9.62 4.88 10.21L2.5 15.5V6.5Z" stroke="#64748B" stroke-width="1.55" stroke-linejoin="round"/>
  <path d="M6.34 10.75H18.06L16.27 15.46C16.06 15.97 15.56 16.3 15.01 16.3H4.5C3.83 16.3 3.27 15.78 3.27 15.11C3.27 14.97 3.29 14.83 3.34 14.7L4.6 11.46C4.79 10.99 5.24 10.75 5.74 10.75H6.34Z" stroke="#64748B" stroke-width="1.55" stroke-linejoin="round"/>
</svg>
