<svg width="20" height="20" viewBox="0 0 20 20" fill="none" xmlns="http://www.w3.org/2000/svg">
  <path d="M4.25 5.25C4.25 4.55964 4.80964 4 5.5 4H10.5C11.1904 4 11.75 4.55964 11.75 5.25V12.75C11.75 13.4404 11.1904 14 10.5 14H5.5C4.80964 14 4.25 13.4404 4.25 12.75V5.25Z" stroke="#64748B" stroke-width="1.55" stroke-linejoin="round"/>
  <path d="M13.25 7.25H14.75C15.4404 7.25 16 7.80964 16 8.5V15C16 15.6904 15.4404 16.25 14.75 16.25H9.75C9.05964 16.25 8.5 15.6904 8.5 15V14.75" stroke="#64748B" stroke-width="1.55" stroke-linejoin="round"/>
  <path d="M6.6 11H9.4" stroke="#64748B" stroke-width="1.55" stroke-linecap="round"/>
  <path d="M11.75 11H14.35" stroke="#64748B" stroke-width="1.55" stroke-linecap="round"/>
</svg>
