<svg width="20" height="20" viewBox="0 0 20 20" fill="none" xmlns="http://www.w3.org/2000/svg">
  <path d="M9.45 2.85L13.4 6.8" stroke="#64748B" stroke-width="1.55" stroke-linecap="round"/>
  <path d="M6.85 6.55L13.45 6.55C13.66 6.55 13.83 6.72 13.83 6.93V9.18C13.83 9.39 13.66 9.56 13.45 9.56L11.7 9.56L11.1 11.41L9.78 10.55L7.45 14.85C7.35 15.05 7.07 15.05 6.97 14.85L5.55 12.15L2.85 10.73C2.66 10.63 2.66 10.36 2.85 10.26L7.15 7.93L6.29 6.61L8.14 6.01L8.14 4.26C8.14 4.05 8.31 3.88 8.52 3.88L6.85 6.55Z" stroke="#64748B" stroke-width="1.55" stroke-linejoin="round"/>
</svg>
